<svg width="94" height="94" viewBox="0 0 94 94" fill="none" xmlns="http://www.w3.org/2000/svg">
<circle cx="47" cy="47" r="47" fill="#88D937"/>
<path fill-rule="evenodd" clip-rule="evenodd" d="M70.9958 25.0042C72.3347 26.3431 72.3347 28.514 70.9958 29.8529L29.8529 70.9958C28.514 72.3347 26.3431 72.3347 25.0042 70.9958C23.6653 69.6569 23.6653 67.486 25.0042 66.1471L66.1471 25.0042C67.486 23.6653 69.6569 23.6653 70.9958 25.0042Z" fill="white"/>
<path fill-rule="evenodd" clip-rule="evenodd" d="M25.0042 25.0042C26.3431 23.6653 28.514 23.6653 29.8529 25.0042L70.9958 66.1471C72.3347 67.486 72.3347 69.6569 70.9958 70.9958C69.6569 72.3347 67.486 72.3347 66.1471 70.9958L25.0042 29.8529C23.6653 28.514 23.6653 26.3431 25.0042 25.0042Z" fill="white"/>
</svg>
