<svg width="33" height="33" viewBox="0 0 33 33" fill="none" xmlns="http://www.w3.org/2000/svg">
<circle cx="16.5" cy="16.5" r="16.5" fill="white"/>
<path d="M20.3652 8.00375L18.031 8C15.4086 8 13.7139 9.73871 13.7139 12.4298V14.4723H11.367C11.1642 14.4723 11 14.6367 11 14.8395V17.7988C11 18.0016 11.1644 18.1658 11.367 18.1658H13.7139V25.633C13.7139 25.8358 13.8782 26 14.081 26H17.143C17.3458 26 17.51 25.8356 17.51 25.633V18.1658H20.2541C20.4569 18.1658 20.6211 18.0016 20.6211 17.7988L20.6223 14.8395C20.6223 14.7421 20.5835 14.6489 20.5148 14.5799C20.446 14.511 20.3524 14.4723 20.255 14.4723H17.51V12.7409C17.51 11.9087 17.7083 11.4862 18.7924 11.4862L20.3648 11.4857C20.5674 11.4857 20.7316 11.3212 20.7316 11.1186V8.37077C20.7316 8.16835 20.5676 8.00412 20.3652 8.00375Z" fill="black"/>
</svg>
