<svg width="1132" height="727" viewBox="0 0 1132 727" fill="none" xmlns="http://www.w3.org/2000/svg">
<path d="M277 35.5001C232.395 66.3429 102.609 -17.8816 51.5 35.5001C7.15105 81.8209 93 131 51.5 199C14.7815 259.165 -21.5331 304.729 17.5001 380.5C43 430 1.5 466.067 1.5 493C1.5 533.5 25.599 548.561 35 582.5C64.5 689 252.813 576.101 317.862 623.551C369.9 661.511 499.328 666.909 533.401 659.001C649.559 620.447 718.745 660.275 774.5 684C830.256 707.725 1047.95 777.627 1113 659.001C1178.05 540.375 1052.59 431.607 1034 354.5C1015.41 277.393 1097 247.962 1097 164.924C1097 81.8859 971.572 -6.01904 874 35.5001C776.428 77.0193 708.572 88.8818 611 35.5C513.427 -17.8817 332.755 -3.05333 277 35.5001Z" fill="url(#paint0_radial)"/>
<path d="M1060.61 136.563C1070.1 145.253 1074.58 170.449 1075.63 181.961C1096.6 169.85 1072.28 126.096 1067.76 123.112C1063.24 120.128 1048.74 125.7 1060.61 136.563Z" fill="white"/>
<path d="M1037.28 115.537C1038.59 122.982 1046.33 123.675 1050.03 123.091C1059.82 117.439 1054.79 111.954 1049.86 108.271C1044.94 104.587 1035.64 106.231 1037.28 115.537Z" fill="white"/>
<path d="M70.3927 585.699C60.9006 577.009 56.4223 551.813 55.3696 540.301C34.3938 552.412 58.7227 596.166 63.2424 599.15C67.7621 602.134 82.2578 596.561 70.3927 585.699Z" fill="white"/>
<path d="M93.7193 606.725C92.4044 599.28 84.6703 598.587 80.9677 599.171C71.179 604.822 76.2105 610.308 81.1338 613.991C86.0572 617.674 95.363 616.031 93.7193 606.725Z" fill="white"/>
<defs>
<radialGradient id="paint0_radial" cx="0" cy="0" r="1" gradientUnits="userSpaceOnUse" gradientTransform="translate(567 343) rotate(90) scale(322 516)">
<stop stop-color="#FFEB95"/>
<stop offset="1" stop-color="#FFCF03"/>
</radialGradient>
</defs>
</svg>
