<svg width="1920" height="130" viewBox="0 0 1920 130" fill="none" xmlns="http://www.w3.org/2000/svg">
<path d="M148.613 1.00011L1920 -4C1927.5 102.5 1798.5 126.668 1719.5 118C1683.19 114.016 1575.64 104.402 1474 102.5C1397.04 101.06 1305.88 114.122 1246 124.573C1141.87 142.75 992.049 101.269 931.811 109.5C787.471 129.223 849.555 74.1757 679.414 107.204C586.702 125.201 556.089 139.411 495.661 122.277C432.271 104.304 375.539 97.6447 262.242 107.204C186.261 113.614 47.9827 78.9999 -0.000106644 -1.61014e-06L148.613 1.00011Z" fill="#FFCF03"/>
<path d="M148.914 0.000145909L1910.5 -3.99988C1921.35 92.4999 1757.57 111.543 1715.5 106.306C1661.13 99.5403 1549.17 84.3849 1451 84C1367.79 83.6738 1299.14 96.6457 1235.4 106.306C1131.28 122.087 988.749 85.0613 928.516 92.2079C784.187 109.332 849.804 63.5324 679.676 92.2079C586.971 107.833 556.358 120.17 495.934 105.295C432.55 89.6902 375.822 83.9086 262.534 92.2079C186.559 97.7737 74 70 12 0.00014472L148.914 0.000145909Z" fill="url(#paint0_radial)"/>
<path d="M1811.99 56.2936C1807.74 62.7789 1793.05 67.9724 1786.23 69.7585C1795.68 80.9226 1819.49 62.1276 1820.82 59.1563C1822.15 56.185 1817.3 48.187 1811.99 56.2936Z" fill="white"/>
<path d="M1822.23 40.3895C1817.89 41.9192 1818.27 46.5573 1819 48.6851C1823.41 53.895 1826.19 50.3684 1827.9 47.088C1829.61 43.8075 1827.66 38.4774 1822.23 40.3895Z" fill="white"/>
<defs>
<radialGradient id="paint0_radial" cx="0" cy="0" r="1" gradientUnits="userSpaceOnUse" gradientTransform="translate(552.698 -132.003) rotate(10.9909) scale(902.156 7898.57)">
<stop stop-color="#DCE860"/>
<stop offset="1" stop-color="#88D937"/>
</radialGradient>
</defs>
</svg>
