<svg width="216" height="126" viewBox="0 0 216 126" fill="none" xmlns="http://www.w3.org/2000/svg">
<g clip-path="url(#clip0)">
<path fill-rule="evenodd" clip-rule="evenodd" d="M116 50.9C125.4 35.4 117 26.5 108.4 19.5L96.5001 31.5C102.6 37.5 109.9 44.8 116 50.9ZM123.5 58.4L120.3 55.2C132.5 38.3 125.4 21.7 110.6 13.2C109.2 12.3 107.4 12 106.2 13.4L90.2001 29.4C89.0001 30.6 89.0001 32.3999 90.2001 33.5999C97.1001 40.4999 105.2 48.6 112.1 55.5L102 65.6L91.7001 55.0999C80.6001 43.9999 78.9001 32.5 82.3001 23.5C83.6001 20 85.8001 16.8 88.4001 14.2C91.1001 11.5 94.3001 9.39995 97.8001 7.99995C106.7 4.29995 117.5 5.29995 125.9 13.8C131.3 19.2 134.9 27.1 134.7 35.5C134.5 42.6 131.6 50.1999 124.7 57.0999L123.5 58.4ZM111.3 78.9C110.1 80.1 108.3 80.1 107.1 78.9C105.9 77.7 105.9 75.9 107.1 74.7L119.3 62.5L116.3 59.5L104.1 71.7C102.9 72.9 101.1 72.9 99.9001 71.7L87.5001 59.2999C74.5001 46.2999 72.6001 32.5 76.8001 21.4C78.4001 17.1 81.0001 13.2 84.3001 9.99995C87.5001 6.79995 91.4001 4.19995 95.6001 2.49995C106.6 -2.00005 119.8 -0.800048 130.2 9.49995C136.7 16 141 25.3999 140.7 35.5999C140.5 44.0999 137.1 53.1 129 61.2L127.7 62.5L138.1 74.1C139.3 75.3 139.3 77.1 138.1 78.3C136.9 79.5 135.1 79.5 133.9 78.3L123.5 66.7L111.3 78.9Z" fill="#016833"/>
<path d="M8.0999 90.4H1.8999V124.6H8.0999V90.4Z" fill="#016833"/>
<path fill-rule="evenodd" clip-rule="evenodd" d="M12.3 99.7C12.3 96.2 12.2 93.3 12 90.4H17.5L17.9 96.1H18C19.7 92.9 23.7 89.7 29.3 89.7C34 89.7 41.4 92.5 41.4 104.3V124.7H35.2V105C35.2 99.5 33.1 94.9 27.3 94.9C23.2 94.9 20 97.8 19 101.3C18.7 102.1 18.6 103.1 18.6 104.2V124.8H12.4V99.7H12.3Z" fill="#016833"/>
<path fill-rule="evenodd" clip-rule="evenodd" d="M50.4999 106.1H50.5999C51.3999 104.9 52.5999 103.4 53.5999 102.2L63.5999 90.4H71.0999L57.9999 104.5L73.0999 124.6H65.4999L53.6999 108.2L50.4999 111.7V124.6H44.3999V74.5H50.4999V106.1Z" fill="#016833"/>
<path fill-rule="evenodd" clip-rule="evenodd" d="M92.4002 107.2C85.6002 107.1 77.9002 108.3 77.9002 114.9C77.9002 118.9 80.6002 120.8 83.8002 120.8C88.3002 120.8 91.1002 118 92.1002 115.1C92.3002 114.5 92.5002 113.8 92.5002 113.1V107.2H92.4002ZM93.4002 124.6L92.9002 120.3H92.7002C90.8002 123 87.1002 125.4 82.2002 125.4C75.3002 125.4 71.7002 120.5 71.7002 115.6C71.7002 107.3 79.0002 102.8 92.3002 102.9V102.2C92.3002 99.4 91.5002 94.3 84.5002 94.3C81.3002 94.3 78.0002 95.3 75.6002 96.8L74.2002 92.7C77.0002 90.9 81.1002 89.7 85.4002 89.7C95.9002 89.7 98.4002 96.8 98.4002 103.7V116.5C98.4002 119.5 98.5002 122.4 99.0002 124.7H93.4002V124.6Z" fill="#016833"/>
<path fill-rule="evenodd" clip-rule="evenodd" d="M106 99.7C106 96.2 105.9 93.3 105.7 90.4H111.1L111.4 95.9H111.6C113.5 92.6 116.7 89.6 122.3 89.6C127 89.6 130.5 92.4 132 96.5H132.1C133.2 94.6 134.5 93.1 135.9 92C137.9 90.4 140.2 89.6 143.5 89.6C148 89.6 154.7 92.6 154.7 104.4V124.5H148.6V105.1C148.6 98.5 146.2 94.6 141.2 94.6C137.7 94.6 134.9 97.2 133.8 100.3C133.5 101.2 133.3 102.3 133.3 103.4V124.5H127.2V104C127.2 98.6 124.8 94.6 120.1 94.6C116.2 94.6 113.4 97.7 112.4 100.8C112 101.7 111.9 102.8 111.9 103.8V124.4H106V99.7Z" fill="#016833"/>
<path fill-rule="evenodd" clip-rule="evenodd" d="M178.1 107.2C171.3 107.1 163.6 108.3 163.6 114.9C163.6 118.9 166.3 120.8 169.5 120.8C174 120.8 176.8 118 177.8 115.1C178 114.5 178.2 113.8 178.2 113.1V107.2H178.1ZM179 124.6L178.5 120.3H178.3C176.4 123 172.7 125.4 167.8 125.4C160.9 125.4 157.3 120.5 157.3 115.6C157.3 107.3 164.6 102.8 177.9 102.9V102.2C177.9 99.4 177.1 94.3 170.1 94.3C166.9 94.3 163.6 95.3 161.2 96.8L159.8 92.7C162.6 90.9 166.7 89.7 171 89.7C181.5 89.7 184 96.8 184 103.7V116.5C184 119.5 184.1 122.4 184.6 124.7H179V124.6Z" fill="#016833"/>
<path fill-rule="evenodd" clip-rule="evenodd" d="M194 90.4L203.9 107.2C200.8 112.8 196.9 118.8 193.5 124.6H187.2L198.4 107.1L187.7 90.4H194V90.4Z" fill="#F8E91C"/>
<path fill-rule="evenodd" clip-rule="evenodd" d="M10 81.3C10.1 84.1 8.1 86.3 4.9 86.3C2 86.3 0 84.1 0 81.3C0 78.5 2.1 76.3 5 76.3C8.1 76.3 10 78.5 10 81.3Z" fill="#016833"/>
<path fill-rule="evenodd" clip-rule="evenodd" d="M10 81.3C10.1 84.1 8.1 86.3 4.9 86.3C2 86.3 0 84.1 0 81.3C0 78.5 2.1 76.3 5 76.3C8.1 76.3 10 78.5 10 81.3Z" fill="#016833"/>
<path fill-rule="evenodd" clip-rule="evenodd" d="M201.6 112.7C203.9 116.6 206.7 120.8 209.4 124.8H215.5L204.3 107.9L201.6 112.7Z" fill="#312783"/>
<path fill-rule="evenodd" clip-rule="evenodd" d="M201.7 101.9C203.5 98.3 205.9 94.2 208 90.4H214.1L204.4 106.6L201.7 101.9Z" fill="#E30613"/>
</g>
<defs>
<clipPath id="clip0">
<rect width="215.5" height="125.4" fill="white"/>
</clipPath>
</defs>
</svg>
