<svg width="992" height="568" viewBox="0 0 992 568" fill="none" xmlns="http://www.w3.org/2000/svg">
<path d="M4.50917 18.0001L992 18.0003L992 531.5C914.5 556 862.5 559.563 808.5 559.563C768.939 561.314 702.324 521.512 641 531.5C500.54 554.377 467.547 566.499 394.5 553.737C296.398 536.597 265.726 525.757 203.5 531.5C98.0544 541.232 61.0001 584 6.12058e-05 559.563L4.50917 18.0001Z" fill="#FFCF03"/>
<path d="M1.25532e-05 6.61364e-05L992 0.000274658L992 511.5C926 536 867.609 538.723 813.5 538.132C763.941 537.59 695.5 495.184 620 508.5C500.96 529.495 477 544.45 403.113 532.534C340.858 522.494 279.5 508.5 202 508.5C100.333 508.5 76.5 560 6.70977e-08 544.45L1.25532e-05 6.61364e-05Z" fill="url(#paint0_radial)"/>
<path d="M951.525 493.294C947.352 499.779 932.924 504.972 926.231 506.759C935.505 517.923 958.887 499.128 960.192 496.156C961.498 493.185 956.74 485.187 951.525 493.294Z" fill="white"/>
<path d="M961.584 477.39C957.32 478.919 957.693 483.557 958.412 485.685C962.74 490.895 965.471 487.368 967.149 484.088C968.826 480.808 966.914 475.477 961.584 477.39Z" fill="white"/>
<defs>
<radialGradient id="paint0_radial" cx="0" cy="0" r="1" gradientUnits="userSpaceOnUse" gradientTransform="translate(541.021 -288.246) rotate(17.5862) scale(1234.41 16631.9)">
<stop stop-color="#DCE860"/>
<stop offset="1" stop-color="#88D937"/>
</radialGradient>
</defs>
</svg>
