<svg width="20" height="21" viewBox="0 0 20 21" fill="none" xmlns="http://www.w3.org/2000/svg">
<path fill-rule="evenodd" clip-rule="evenodd" d="M8.8614 6.33887C9.3795 5.64068 9.56529 4.90484 8.97932 4.25531C7.66437 2.41528 6.78003 1.27746 6.22533 0.72949C5.17077 -0.312197 3.436 -0.171328 2.52267 0.728636C2.03212 1.21197 1.86604 1.37799 1.36235 1.88959C-1.4433 4.69671 0.267729 10.631 4.81627 15.184C9.36378 19.736 15.2975 21.4479 18.109 18.6348C18.5738 18.1868 18.9673 17.793 19.2777 17.465C20.1727 16.5189 20.3086 14.8607 19.2718 13.7834C18.7402 13.2311 17.6552 12.3895 15.7378 11.0179C15.1506 10.4928 14.4543 10.6066 13.8159 11.0254C13.5089 11.2269 13.2854 11.4307 12.8634 11.853L12.0972 12.6197C11.9963 12.7207 10.6259 12.0344 9.2956 10.7028C7.9646 9.37048 7.27878 8.00006 7.37923 7.8996L8.146 7.13238C8.27988 6.99841 8.34388 6.93353 8.42596 6.84723C8.59697 6.66754 8.73856 6.50439 8.8614 6.33887ZM13.5106 14.0338L14.277 13.2669C14.5092 13.0344 14.6598 12.8915 14.7822 12.793C16.4618 13.9992 17.4346 14.7576 17.8319 15.1705C18.0705 15.4183 18.0334 15.8707 17.8261 16.0898C17.5391 16.3932 17.1662 16.7662 16.7086 17.2076C14.8906 19.0264 10.1008 17.6445 6.23002 13.7699C2.35803 9.8941 0.97677 5.10357 2.78108 3.29828C3.28275 2.78876 3.44169 2.62988 3.92524 2.15344C4.10655 1.97479 4.60041 1.93469 4.82096 2.15252C5.24803 2.5744 6.04023 3.5888 7.2056 5.2121C7.14527 5.28699 7.06992 5.37164 6.97822 5.46802C6.91092 5.53876 6.85485 5.59558 6.73227 5.71832L5.96625 6.48474C4.6631 7.78778 5.77291 10.0055 7.88186 12.1165C9.98937 14.2261 12.2079 15.3372 13.5106 14.0338Z" fill="black"/>
</svg>
