<svg width="316" height="567" viewBox="0 0 316 567" fill="none" xmlns="http://www.w3.org/2000/svg">
<g clip-path="url(#clip0)">
<rect width="316" height="567" fill="transparent"/>
<path d="M170.857 18.705C140.618 23.0809 96.952 21.5004 83.4594 8.08291C69.0773 -6.21916 -4.67055 -5.27121 1.43926 57.146C8.20231 126.237 -2.16406 281.387 0.15997 358.362C28.5699 538.154 190.55 526.596 229.188 498.674C267.825 470.752 273.276 458.31 260.51 428.423C247.743 398.535 257.292 384.996 273.127 352.569C288.962 320.142 332.573 261.605 275.536 215.396C218.499 169.187 237.875 107.627 238.032 86.3557C238.188 65.0842 212.436 12.6881 170.857 18.705Z" fill="#FFCF03"/>
<path d="M62.1546 57.3856C15.1279 55.6382 6.84325 101.854 8.57925 125.181C14.5871 159.441 23.0392 245.535 8.78462 315.825C-9.03365 403.687 18.434 475.497 33.5176 500.371C48.6013 525.246 74.85 535.782 121.423 521.73C169.749 507.15 157.051 529.021 187.277 551.668C217.502 574.315 237.249 569.498 260.36 546.469C279.685 527.212 279.493 496.945 269.752 483.815C260.012 470.686 248.531 430.572 266.527 414.403C335.391 353.126 312.235 317.25 306.925 297.431C300.224 272.422 219.889 247.181 241.644 194.5C263.399 141.82 223.228 68.3978 179.399 78.3116C110 92.5148 120.938 59.5699 62.1546 57.3856Z" fill="url(#paint0_radial)"/>
<path d="M241.442 524.278C236.455 535.577 214.92 547.386 204.776 551.879C222.229 567.233 254.542 531.675 255.868 526.649C257.193 521.623 247.675 510.153 241.442 524.278Z" fill="white"/>
<path d="M253.397 496.61C247.031 500.092 248.776 507.337 250.444 510.525C258.589 517.69 262.031 511.43 263.869 505.823C265.706 500.215 261.354 492.258 253.397 496.61Z" fill="white"/>
<path d="M289.654 320.259C292.153 328.251 286.436 343.889 283.265 350.709C299.024 350.753 299.641 318.186 298.074 315.03C296.507 311.874 286.53 310.27 289.654 320.259Z" fill="white"/>
<path d="M283.405 300.806C281.711 305.423 285.836 308.342 288.109 309.224C295.464 309.244 294.426 304.514 292.861 300.832C291.295 297.151 285.523 295.033 283.405 300.806Z" fill="white"/>
<path d="M205.629 50.2362C206.141 46.6828 205.236 38.1161 197.522 32.2769C187.88 24.9779 175.934 33.6692 182.295 39.6513C188.656 45.6333 191.223 40.1871 195.62 41.5711C200.018 42.955 202.004 44.5453 202.986 46.8443" stroke="black"/>
<path d="M70.4068 1.47854C79.5164 7.70023 109.841 28.2899 146.293 21.0404C188.688 12.6087 208.973 25.4745 223.325 47.6168C237.676 69.7591 236.621 83.5863 236.336 92.0815" stroke="black" stroke-width="2"/>
<path d="M255.909 195.179C262.569 203.643 257.721 206.04 284.001 223.522C299.59 232.522 300.299 254.294 303.593 266.588" stroke="black" stroke-width="2"/>
</g>
<defs>
<radialGradient id="paint0_radial" cx="0" cy="0" r="1" gradientUnits="userSpaceOnUse" gradientTransform="translate(142.781 308.916) rotate(120) scale(228.063 222.397)">
<stop stop-color="#E5F365"/>
<stop offset="1" stop-color="#8FD83F"/>
</radialGradient>
<clipPath id="clip0">
<rect width="316" height="567" fill="white"/>
</clipPath>
</defs>
</svg>
