<svg width="90" height="84" viewBox="0 0 90 84" fill="none" xmlns="http://www.w3.org/2000/svg">
<g clip-path="url(#clip0)">
<path d="M73.5417 54.2194C73.3661 48.4419 71.8188 43.0367 68.1908 38.4806C67.9234 38.1668 67.7954 37.8297 67.528 37.5159C66.1675 35.8074 65.2255 34.029 64.5973 31.9832C64.2716 30.8905 63.8064 29.8212 63.3411 28.7518C62.7712 27.4848 62.2246 26.3573 61.5152 25.1136C60.271 23.2423 58.5734 21.6617 56.2948 20.895C55.6902 20.7092 55.0043 20.4652 54.4579 20.1979C52.621 19.5009 51.0399 18.6177 49.6446 17.1301C49.0283 16.4443 48.2725 15.7819 47.5982 15.1776C45.6913 13.2018 43.2847 12.098 40.5528 11.622C39.5298 11.5059 38.4254 11.3318 37.4024 11.2158C31.9735 10.9031 25.267 14.9617 19.8268 15.8696C19.2688 15.9627 18.7341 16.1954 18.2225 15.7072C17.5834 16.6025 16.8861 17.5791 16.2469 18.4744C16.5144 18.7882 16.7585 18.9625 16.9446 19.2182C17.1655 19.253 17.2468 19.3111 17.3863 19.2879C18.5023 19.1016 18.9904 18.59 20.1063 18.4037C25.8022 17.3097 33.3226 13.8323 39.0189 14.4587C41.4253 14.7023 43.611 15.7713 45.4481 17.3286C46.448 18.1654 47.5293 19.0602 48.5292 19.897C50.0407 21.2219 51.7847 22.2212 53.7029 22.9764C54.3074 23.1623 54.9352 23.4876 55.6212 23.7316C57.2139 24.2544 58.3417 25.4282 59.1558 26.8695C59.7372 27.7761 60.1211 28.7874 60.4816 29.6592C60.8655 30.6704 61.1679 31.6236 61.4123 32.6581C62.0405 34.704 62.9244 36.5637 64.4011 38.1095C64.8313 38.5395 65.1453 39.1323 65.5407 39.7832C64.6808 41.5039 64.4022 43.2709 64.1236 45.0379C64.054 45.4797 63.8448 45.9447 63.7752 46.3865C63.2176 48.2 62.66 50.0136 62.1838 51.8853C62.056 52.4085 61.7074 52.8968 62.0214 53.4896C62.5213 53.4778 62.6723 53.0942 62.7652 52.7919C63.044 51.8851 63.3228 50.9783 63.6016 50.0715C63.8108 49.6065 64.078 49.0601 64.2871 48.595C64.3918 48.7926 64.636 48.967 64.7406 49.1646C64.9736 51.4197 65.1252 53.6168 64.1957 55.7792C64.1028 56.0814 64.068 56.3023 64.0564 56.6627C64.3239 56.9765 64.5681 57.1508 64.9169 57.5227C64.8938 58.2435 64.8126 59.0456 64.8128 59.9058C64.2896 59.7781 64.0803 59.3829 63.871 58.9877C61.8357 54.9543 59.4867 51.1884 56.8006 47.5505C56.6145 47.2948 56.568 47.0158 56.4633 46.8182C56.5212 45.8766 56.5443 45.1558 57.1253 44.342C57.5321 43.7723 57.7528 42.9469 57.9967 42.261C58.4729 40.3893 58.891 38.599 59.2858 36.6692C59.3555 36.2274 59.5646 35.7624 59.1344 35.3323C58.3906 36.03 58.4722 36.9483 58.1701 37.7156C57.8913 38.6224 57.6939 39.5873 57.4151 40.4941C57.1944 41.3195 57.1946 42.1798 56.5903 42.8541C55.904 40.8897 55.741 39.9133 56.0196 38.1462C56.4027 35.7166 56.9253 33.2636 57.3083 30.834C57.4361 30.3108 57.343 29.7528 57.3893 29.1716C56.4595 29.6135 56.6572 30.3691 56.4714 30.9736C56.2855 31.5782 56.2624 32.2989 56.0766 32.9034C55.8907 33.508 56.0885 34.2635 55.4376 34.6589C55.3562 34.6008 55.2748 34.5427 55.2748 34.5427C54.9606 33.0897 54.6697 31.7762 54.3788 30.4626C54.46 29.6605 54.6459 29.056 54.6109 28.4166C54.6572 27.8354 54.9593 27.0681 54.5058 26.4985C54.3896 26.6613 54.1106 26.7079 54.1339 26.8474C53.5301 30.1024 52.7869 33.3808 52.4273 36.8102C52.9038 36.659 53.2642 36.6705 53.6013 36.5425C54.4738 39.6229 54.8931 42.994 54.5331 44.7029C52.8821 43.4013 51.6844 41.809 50.3124 40.4608C48.7776 38.9964 47.0685 37.7762 45.8475 36.0444C45.7426 34.9866 45.7773 33.9055 45.7538 32.9057C46.0443 32.4988 46.3348 32.0919 46.6835 31.6036C46.811 30.2202 47.0781 28.8135 47.2057 27.4302C47.3913 25.9654 47.5189 24.582 47.5651 23.1405C47.5766 22.7802 47.5881 22.4198 47.5183 22.0013C47.4717 21.7223 47.2857 21.4666 46.8324 21.7573C46.2402 24.652 46.2525 27.7326 45.3813 30.6739C45.3813 30.6739 45.2418 30.6972 45.0209 30.6623C44.7766 29.6278 44.5089 28.4537 44.1251 27.4425C43.6947 26.1522 43.5433 24.8154 43.6127 23.5134C43.6358 22.7927 43.717 21.9905 43.6587 21.2117C43.6935 20.9908 43.5075 20.7351 43.4028 20.5375C43.2285 20.7817 42.9728 20.9677 42.9961 21.1072C42.9266 22.4092 42.4735 23.5602 42.0552 24.4902C42.2066 25.827 42.3929 26.943 42.4396 28.0822C42.5097 29.3609 42.138 30.57 42.5451 31.7207C43.0101 31.9299 43.3938 32.0809 43.7774 32.232C44.3358 33.8593 44.3358 33.8593 43.7314 34.5337C41.4061 32.6277 38.9412 30.745 36.6158 28.8391C36.1273 27.6302 35.7202 26.4795 35.313 25.3287C34.8478 24.2593 34.3826 23.19 33.9987 22.1787C33.1497 20.0981 33.1497 20.0981 32.1265 19.1218C32.1384 20.4819 32.685 21.6094 33.1502 22.6788C33.7201 23.9457 34.4295 25.1894 35.0808 26.5145C35.2088 26.8516 35.2786 27.2701 34.7206 27.3632C32.407 25.9571 30.012 24.4929 27.6169 23.0287C25.2452 21.704 22.8502 20.2398 20.2112 19.4616C20.0368 19.7057 19.9206 19.8685 19.8044 20.0313C22.3389 21.4722 24.8502 22.7736 27.1871 24.3192C32.3841 27.5381 33.3026 28.3167 34.2329 29.5952C33.4077 30.2348 32.4661 30.1769 31.4896 30.3398C30.6527 30.4795 29.7924 30.4797 28.8741 30.5613C27.9557 30.6429 26.956 30.6663 25.9563 30.6898C25.038 30.7714 24.0731 30.574 23.1432 31.0159C23.1782 31.6553 23.5386 31.6668 23.8989 31.6784C26.6657 31.9335 29.4673 31.9678 32.199 31.5835C33.036 31.4438 33.8496 31.1647 34.6866 31.025C35.1632 30.8738 35.5584 30.6644 35.9768 30.5946C38.3951 32.1983 40.5345 33.8485 42.639 35.7196C42.8017 35.8358 42.8716 36.2543 42.9995 36.5914C42.4648 36.824 41.9534 37.1961 41.3955 37.2893C39.1869 37.8012 36.8736 38.1156 34.5486 37.9301C34.1882 37.9186 33.7465 37.8489 33.5955 38.2326C33.6653 38.6511 34.0489 38.8021 34.3512 38.895C37.9666 39.5103 41.3377 39.0911 44.6273 37.7535C46.255 38.9156 50.1617 42.5649 51.8477 44.5059C52.1152 44.8197 52.3245 45.2149 52.6385 45.8077C51.1739 46.4823 49.7557 46.5756 48.3608 46.8084C47.0473 47.0993 45.7105 47.2507 44.3969 47.5416C43.0834 47.8325 41.5373 47.5888 40.1541 48.3214C40.282 48.6585 40.4681 48.9142 40.5727 49.1118C41.6656 49.6463 42.7234 49.5415 43.6999 49.3785C45.5365 49.2153 47.2918 48.9941 49.1052 48.6914C50.8605 48.4702 52.6739 48.1675 54.4292 47.9463C56.5803 50.0964 59.7549 54.9432 61.8367 59.2555C62.046 59.6507 62.3949 60.0226 61.9881 60.5923C59.5585 60.2092 57.0707 59.9075 54.6643 59.664C52.1184 59.4437 49.5493 59.0839 47.0267 59.0031C46.8524 59.2472 46.7362 59.41 46.5618 59.6541C46.8874 59.8866 47.1548 60.2004 47.4571 60.2933C48.2825 60.514 49.1079 60.7347 49.9914 60.874C51.9793 61.1874 53.9672 61.5008 55.9551 61.8143C58.5243 62.1741 60.9772 62.6966 63.6511 63.254C64.7908 65.788 65.6284 68.229 66.4892 70.8095C66.6404 71.2861 66.7102 71.7045 66.7801 72.123C65.0714 72.6233 63.5602 73.0188 61.9096 73.4377C61.0145 73.6588 60.0381 73.8217 59.0384 73.8452C53.1562 73.8233 48.2269 71.7784 44.75 66.8387C44.6453 66.6411 44.4825 66.5248 44.4593 66.3854C42.4708 63.4912 39.9942 61.1087 37.1689 59.2145C35.3203 58.0176 33.5298 56.7392 31.7393 55.4609C27.3445 52.3232 23.9143 48.5227 21.658 43.5943C21.5766 43.5362 21.5533 43.3967 21.472 43.3386C20.2973 41.0255 18.7275 38.9218 16.7277 37.2482C15.6464 36.3534 14.4837 35.4004 13.4024 34.5055C11.7514 33.2039 17.1662 22.6939 16.2009 20.776C16.0729 20.4389 15.8636 20.0438 15.6775 19.788C15.5729 19.5904 15.352 19.5556 15.2706 19.4975C14.7707 19.5093 14.6778 19.8115 14.5501 20.3347C14.8527 22.1481 9.2519 32.4024 10.4844 33.7738C11.4495 34.8315 12.5308 35.7263 13.6354 36.7607C15.333 38.3413 16.7748 40.1079 17.7053 42.2467C18.2519 43.3741 18.7985 44.5016 19.3451 45.6291C21.2409 49.6857 24.1594 52.9981 27.8799 55.5315C29.6704 56.8098 31.519 58.0068 33.3676 59.2037C36.4951 61.1909 39.1112 63.5501 41.2044 66.6418C41.8672 67.6065 42.6463 68.4085 43.3091 69.3732C44.2974 70.5703 45.402 71.6047 46.6228 72.4762C50.2619 74.9515 54.296 76.3572 58.7019 76.5538C59.9225 76.5652 61.2012 76.4952 62.3752 76.2275C64.4443 75.7388 66.4088 75.0525 68.3384 74.5871C70.0234 72.2269 71.1272 69.8203 71.8822 67.0419C73.0786 62.6126 73.6008 58.4392 73.5417 54.2194ZM64.2173 48.1766C64.2987 48.2347 64.4382 48.2114 64.5196 48.2695C64.4615 48.3509 64.4034 48.4323 64.3453 48.5137C64.322 48.3742 64.2987 48.2347 64.2173 48.1766ZM66.4142 47.1647C65.9139 45.456 65.6927 43.7007 65.8318 41.957C65.8433 41.5966 65.9943 41.2129 66.6104 41.0384C67.5405 41.4567 67.843 42.4099 68.5058 43.3746C68.1804 44.0024 67.8551 44.6302 67.6111 45.3161C67.3671 46.002 67.2046 46.7461 66.635 47.1996C66.5769 47.2809 66.4955 47.2228 66.4142 47.1647ZM68.8605 70.4137C68.6978 70.2975 68.4769 70.2627 68.3955 70.2046C67.4185 67.7868 66.5229 65.4272 65.5691 63.149C67.3467 58.766 68.7059 54.4529 69.8789 49.8841C69.2977 49.8378 69.3094 50.3376 69.1932 50.5004C68.6705 52.0931 68.2058 53.6045 67.6017 55.1391C67.4739 55.6622 67.1253 56.1505 66.9161 56.6156C66.7534 56.4993 66.5325 56.4645 66.5906 56.3831C66.3691 53.7676 66.1244 51.0126 67.1236 48.4084C67.5186 47.3389 67.8322 46.2112 68.1458 45.0835C68.1806 44.8626 68.4363 44.6766 68.6106 44.4324C69.2152 44.6183 69.3664 45.0949 69.5757 45.4901C70.6109 47.8264 71.2508 50.3721 71.4722 52.9876C71.9036 58.579 71.1725 64.0777 69.4764 69.379C69.3835 69.6812 69.2092 69.9254 69.093 70.0882C69.0581 70.309 69 70.3904 68.8605 70.4137Z" fill="black"/>
<path d="M59.3233 48.4915C59.3466 48.631 59.428 48.6891 59.5792 49.1657C59.8232 48.4798 60.0556 48.1542 60.0672 47.7939C60.764 45.0968 61.4028 42.4811 62.0997 39.784C62.2623 39.0399 62.4249 38.2959 62.448 37.5752C62.4247 37.4357 62.6338 36.9707 62.134 36.9824C62.0178 37.1452 61.8202 37.2498 61.8434 37.3893C61.0073 40.9699 60.0316 44.5738 59.1954 48.1544C59.2187 48.2939 59.242 48.4334 59.3233 48.4915Z" fill="black"/>
<path d="M40.2193 28.0942C40.324 28.2918 40.5681 28.4662 40.8937 28.6986C41.2535 26.1294 40.9972 23.7348 40.9618 21.375C40.9383 20.3752 41.0543 19.3522 40.1125 18.4341C40.0435 21.4565 40.0558 24.5371 40.0448 27.4782C40.0914 27.7571 40.1146 27.8966 40.2193 28.0942Z" fill="black"/>
<path d="M49.9374 27.0459C49.8445 27.3482 49.6701 27.5923 49.6353 27.8132C49.3684 30.0801 49.1016 32.347 48.9161 34.672C48.9394 34.8115 49.044 35.0091 49.0673 35.1486C49.2068 35.1253 49.4277 35.1601 49.6486 35.1949C50.0665 32.5444 50.3449 29.9171 50.3443 27.3364C50.321 27.1969 50.2396 27.1388 50.1583 27.0807C50.6347 26.0693 50.6693 24.9882 50.4249 23.9536C50.4249 23.9536 50.3435 23.8955 50.2622 23.8374C49.7044 24.7908 49.6116 25.9533 49.9374 27.0459Z" fill="black"/>
<path d="M50.2389 23.6979C50.3203 23.756 50.3203 23.756 50.2389 23.6979C50.2389 23.6979 50.3203 23.756 50.2389 23.6979C50.3203 23.756 50.3203 23.756 50.2389 23.6979C50.3203 23.756 50.297 23.6165 50.2389 23.6979Z" fill="black"/>
<path d="M50.1109 23.3608C50.1923 23.4189 50.2156 23.5584 50.297 23.6165C50.4132 23.4538 50.6108 23.3491 50.1109 23.3608Z" fill="black"/>
<path d="M43.4492 19.9562C43.333 20.1189 43.2749 20.2003 43.4957 20.2352C43.5539 20.1538 43.5539 20.1538 43.612 20.0724L43.4492 19.9562Z" fill="black"/>
<path d="M35.7646 17.2959L35.7879 17.4354C35.7879 17.4354 35.7879 17.4354 35.8112 17.5749L35.8693 17.4935L35.7646 17.2959Z" fill="black"/>
<path d="M35.8462 18.2142C35.7996 17.9352 35.7764 17.7957 35.7298 17.5167C35.5555 17.7609 35.602 18.0399 35.8462 18.2142Z" fill="black"/>
<path d="M35.9276 18.2723C35.8695 18.3537 35.8695 18.3537 35.8695 18.3537C35.9276 18.2723 35.9276 18.2723 35.9276 18.2723L35.8462 18.2142C35.9276 18.2723 35.9276 18.2723 35.9276 18.2723Z" fill="black"/>
<path d="M35.9859 19.0512C36.0207 18.8303 35.9741 18.5513 35.9509 18.4118C35.6952 18.5979 35.6603 18.8188 35.9859 19.0512Z" fill="black"/>
<path d="M36.0092 19.1906C36.0673 19.1093 36.0673 19.1093 36.0092 19.1906C36.0673 19.1093 35.9859 19.0511 35.9859 19.0511C35.9859 19.0511 35.9859 19.0511 36.0092 19.1906C35.9278 19.1325 35.9278 19.1325 36.0092 19.1906Z" fill="black"/>
<path d="M36.1256 19.888C36.2999 19.6439 36.2533 19.3649 36.0092 19.1906C35.7535 19.3766 35.8 19.6556 36.1256 19.888Z" fill="black"/>
<path d="M36.1839 20.6669C36.4163 20.3414 36.3116 20.1438 36.0675 19.9695C35.8931 20.2136 35.9397 20.4926 36.1839 20.6669Z" fill="black"/>
<path d="M36.3235 21.5039C36.556 21.1783 36.4513 20.9807 36.2071 20.8064C36.0328 21.0506 35.998 21.2714 36.3235 21.5039Z" fill="black"/>
<path d="M36.4632 22.3408C36.6957 22.0153 36.6491 21.7363 36.3468 21.6433C36.0911 21.8294 36.1377 22.1084 36.4632 22.3408Z" fill="black"/>
<path d="M36.5215 23.1197C36.2891 23.4452 36.3357 23.7242 36.6612 23.9567C36.4174 25.5028 36.4174 25.5028 37.208 25.9444C37.3706 25.2003 37.3356 24.561 36.8007 23.9334C37.0331 23.6078 36.9866 23.3288 36.5215 23.1197C36.754 22.7942 36.7888 22.5733 36.4632 22.3409C36.1494 22.6083 36.196 22.8873 36.5215 23.1197Z" fill="black"/>
</g>
<defs>
<clipPath id="clip0">
<rect x="27.7164" width="76.4" height="47.7" transform="rotate(35.5249 27.7164 0)" fill="white"/>
</clipPath>
</defs>
</svg>
