<svg width="94" height="61" viewBox="0 0 94 61" fill="none" xmlns="http://www.w3.org/2000/svg">
<path d="M34.2141 25.8985C33.1892 26.61 32.1548 27.2376 31.2138 27.9396C29.0151 29.5496 26.6468 30.4135 23.9867 30.2048C23.8188 30.2239 23.6508 30.2429 23.4734 30.178C21.5136 30.1451 19.8075 30.8488 18.3264 32.0373C16.7708 33.3193 15.4118 34.8341 14.2397 36.4978C13.1326 37.9841 12.1189 39.5448 11.1053 41.1055C10.166 42.5727 8.93684 43.7326 7.31465 44.4268C6.42912 44.8674 5.63706 45.3824 4.85454 45.9815C4.54724 46.2714 4.35246 46.8038 4.2131 47.0747C4.33514 47.4011 4.27022 47.5785 4.36371 47.653C6.17196 50.8497 8.79909 53.0181 12.5143 53.5324C13.1211 53.6336 13.8119 53.7254 14.4092 53.7427C16.2105 53.8787 17.9184 53.9401 19.7103 53.9921C21.754 54.0155 23.6774 54.4778 25.5549 55.2854C26.6292 55.7589 27.6099 56.158 28.7586 56.538C30.6171 57.1777 32.5768 57.2106 34.4604 56.5718C36.8288 55.708 39.2067 54.9281 41.5845 54.1482C45.5941 52.758 48.3598 50.1482 50.0495 46.2997C50.5231 45.2254 50.8936 43.9928 51.2831 42.9281C51.4129 42.5732 51.6268 42.2087 51.7566 41.8538C52.6153 41.9266 53.3061 42.0183 53.9873 42.0261C54.7525 42.0244 55.6112 42.0971 56.3669 42.0114C57.5519 41.9621 58.8209 41.9033 59.9774 41.602C61.964 41.1216 63.8572 40.5668 65.8247 39.9185C68.9392 38.885 71.7257 37.2083 74.0066 34.8235C75.757 33.0092 77.6103 31.3533 79.7536 30.0047C81.4312 29.049 82.5383 27.5628 83.1875 25.7883C83.4568 25.1624 83.6515 24.6301 83.9207 24.0042C84.6903 21.7908 85.7308 19.7168 87.0422 17.7822C87.5538 17.0438 87.9815 16.3149 88.3996 15.5021C89.0869 14.0635 89.1674 12.5235 88.4083 11.0788C88.0612 10.2677 87.6301 9.46613 87.2086 8.74853C86.581 7.7141 86.0279 6.58619 85.9327 5.74654C85.7613 4.23516 86.4677 2.96442 85.4012 1.80967C85.0558 1.76379 84.6074 1.55949 84.0941 1.53265C83.4969 1.51533 82.9931 1.57247 82.4053 1.63911C79.7279 2.02775 77.106 2.15496 74.4554 2.03028C73.7742 2.02248 72.9994 1.94024 72.2342 1.94196C68.1372 1.8112 64.4254 2.8274 61.259 5.65275C59.7225 7.10265 57.8865 8.16129 55.8445 8.90311C52.9074 10.0015 51.2791 12.1422 50.5952 15.1113C50.3087 16.3344 50.1157 17.632 49.9226 18.9295C49.8309 19.6203 49.7486 20.395 49.2465 21.2174C47.0842 22.398 46.557 24.4989 46.5717 26.8785C46.5639 27.5598 46.5466 28.157 46.5293 28.7543C45.8671 28.9144 45.6325 28.3457 45.2585 28.0479C43.9402 26.9218 42.5569 25.973 41.0343 25.2952C38.8668 24.1803 36.4967 24.2789 34.2141 25.8985ZM48.2242 27.2014C48.148 26.5297 48.2493 25.9229 48.2571 25.2416C48.3852 24.1215 48.8682 23.1313 49.8282 22.5972C51.2634 21.7541 51.8019 20.5024 51.9759 19.0369C52.1326 18.1687 52.1958 17.226 52.362 16.4418C52.5931 15.4801 52.8242 14.5184 53.1489 13.6311C53.6778 12.2955 54.6741 11.332 56.176 11.0767C59.2636 10.5565 61.7238 9.00185 63.9493 6.87851C65.6347 5.24164 67.7607 4.49031 70.0182 4.14928C70.8579 4.05407 71.7815 3.94933 72.7146 3.92857C75.682 3.84723 78.7238 3.67242 81.6531 3.25522C82.2408 3.18858 82.8935 2.94448 83.6319 3.45607C83.6604 3.70797 83.689 3.95986 83.7271 4.29573C83.74 5.91011 84.2378 7.29943 84.9874 8.6602C85.4089 9.37781 85.8209 10.0115 86.2425 10.7291C86.8701 11.7635 87.2552 12.9104 87.0068 14.4694C86.6441 15.0208 86.31 15.8241 85.7049 16.488C83.5174 18.9472 81.9653 21.7596 80.7777 24.7858C80.5734 25.2342 80.3691 25.6826 80.1648 26.131C79.6818 27.1213 78.9373 28.0561 77.9868 28.6742C75.8531 30.1068 73.9253 31.8562 71.9975 33.6056C69.5296 35.8414 66.7527 37.6021 63.5637 38.7291C60.9435 39.6215 58.3042 40.346 55.4667 40.0724C54.6919 39.9902 53.8523 40.0854 52.9936 40.0127C52.946 39.5929 52.9079 39.257 52.9633 38.9956C53.603 37.1371 54.5137 35.418 55.5369 33.9412C56.245 33.4357 56.9911 33.2661 57.7563 33.2643C58.0082 33.2358 58.2887 33.4591 58.5596 33.5985L58.5691 33.6824C58.5691 33.6824 58.5691 33.6824 58.5596 33.5985L58.4757 33.608C58.8669 33.3085 59.2582 33.009 59.659 32.7935C59.9758 32.5874 60.3861 32.4559 60.844 32.7441C60.6224 33.7898 59.878 34.7247 59.3949 35.7149C58.9863 36.6117 58.4098 37.5275 58.2073 38.7411C58.5241 38.5351 58.776 38.5066 58.8409 38.3291C59.6866 36.7874 60.4389 35.1713 61.2846 33.6297C61.5729 33.1718 61.8516 32.6299 62.1399 32.172C62.4376 31.798 62.8384 31.5825 63.3708 31.7773C63.5023 32.1876 63.195 32.4775 63.0652 32.8325C62.3493 34.0192 61.6239 35.122 60.908 36.3088C60.7687 36.5797 60.7133 36.8411 60.8353 37.1675C61.3296 37.0264 61.5339 36.578 61.7477 36.2136C62.6869 34.7463 63.6261 33.2791 64.6493 31.8024C64.7887 31.5314 65.115 31.4094 65.3574 31.2969C65.4414 31.2873 65.5444 31.4458 65.7218 31.5107C65.3686 32.146 64.941 32.8749 64.5134 33.6037C64.7748 33.6591 64.9618 33.808 65.0362 33.7145C65.8646 32.7702 66.6835 31.7418 67.5119 30.7974C68.1551 30.4694 68.594 30.5897 68.9965 31.1394C69.7045 30.6339 70.4222 30.2123 71.2142 29.6973C71.2791 29.5198 71.2506 29.2679 71.2964 28.9225C72.4226 27.6042 73.7263 26.3508 75.0299 25.0974C75.3372 24.8074 75.7285 24.5079 75.8393 23.9851C75.4099 23.9487 75.0931 24.1547 74.8698 24.4352C73.5661 25.6886 72.1785 26.9515 70.8844 28.2889C70.4282 28.7659 69.9625 29.1588 69.5063 29.6358C69.2449 29.5804 69.0675 29.5155 68.7126 29.3856C69.7911 27.6475 71.1788 26.3845 72.4253 24.6273C72.015 24.7589 71.7535 24.7035 71.6791 24.797C70.5434 26.0314 69.4172 27.3497 68.3655 28.5745C67.9093 29.0515 67.537 29.5189 67.0809 29.9959C66.932 30.1828 66.9224 30.0989 66.1477 30.0166C66.6022 28.7745 67.7015 27.9694 68.24 26.7178C68.2209 26.5498 68.1084 26.3074 68.0894 26.1395C66.9822 27.6258 65.8655 29.0281 64.9073 30.3274C64.2641 30.6554 63.8538 30.787 63.228 30.5178C63.4323 30.0694 63.711 29.5275 63.9153 29.0791C64.0547 28.8082 64.194 28.5373 64.072 28.2109C63.1215 28.829 62.835 30.0521 61.9875 30.8285C61.2985 31.502 60.3273 31.1869 59.5066 31.45C58.686 31.7132 57.8845 32.1442 56.9418 32.081C57.4517 30.5774 59.2193 28.1658 61.9374 25.1362C66.3685 24.4637 70.7884 22.9419 75.416 22.5023C75.6679 22.4737 75.8263 22.3707 76.2366 22.2391C75.8817 22.1093 75.7787 21.9509 75.6108 21.9699C74.9295 21.9621 74.3418 22.0288 73.6605 22.021C70.6378 22.3637 67.5406 22.7999 64.575 23.6465C64.2486 23.7685 63.9872 23.7131 63.6513 23.7512C63.6418 23.6673 63.5388 23.5088 63.5388 23.5088C64.1707 22.3316 66.3028 20.1338 68.4729 18.2719C72.8772 18.1127 76.4037 17.7128 78.4553 17.0549C78.4077 16.6351 78.0623 16.5892 77.7264 16.6273C76.3735 16.6957 74.9461 16.8575 73.6026 17.0099C72.5111 17.1336 71.3355 17.2669 70.1315 17.1483C70.1869 16.8869 70.1488 16.551 70.3072 16.448C71.378 15.3911 72.3743 14.4277 73.6321 13.5197C75.5762 14.9151 77.6944 14.845 79.9979 14.1586C79.7174 13.9352 79.5209 13.7024 79.353 13.7214C78.7462 13.6202 78.0745 13.6963 77.3837 13.6045C76.7769 13.5033 76.0861 13.4115 75.4698 13.2263C75.2923 13.1613 75.1798 12.919 74.8994 12.6956C76.2203 10.8449 78.4112 9.91614 80.0871 8.1953C79.7417 8.14942 79.4708 8.01006 79.3963 8.10354C78.5203 8.6281 77.6538 9.23662 76.7873 9.84514C76.3865 10.0607 75.9953 10.3602 75.52 10.6692C75.1063 9.27035 76.3164 7.9425 75.6508 6.57221C75.4084 6.68474 75.2405 6.70378 74.9981 6.81631C74.4138 8.41337 74.1004 10.1498 73.6286 11.9893C72.0826 13.3552 70.4526 14.7306 68.8322 16.1901C68.4582 15.8923 68.4201 15.5564 68.55 15.2015C68.9015 13.8009 69.2529 12.4004 69.5948 10.9158C69.7706 10.2156 69.8623 9.52478 70.0286 8.74053C70.0935 8.56308 69.897 8.33022 69.7844 8.08785C69.6165 8.10689 69.3646 8.13546 69.2902 8.22894C68.6236 10.6007 67.8826 13.066 67.3 15.4283C67.1243 16.1286 67.21 16.8843 67.2212 17.7334C65.7038 19.3513 64.0279 21.0721 62.4265 22.6995C61.9686 22.4112 62.1079 22.1403 62.1538 21.7949C62.5399 19.1998 62.8516 16.6981 63.2377 14.103C63.339 13.4962 63.3468 12.8149 63.3546 12.1337C63.3355 11.9658 63.223 11.7234 63.017 11.4066C62.3851 12.5838 62.4344 13.7688 62.2128 14.8145C62.0007 15.9442 61.8726 17.0643 61.6605 18.1939C61.5228 19.23 61.3012 20.2757 61.1636 21.3119C61.0354 22.432 60.8233 23.5616 60.7143 24.8497C59.3093 26.7099 57.746 28.6731 56.1827 30.6363C56.1082 30.7298 56.0147 30.6553 55.9403 30.7488C55.5759 30.535 55.7057 30.1801 55.6771 29.9282C56.033 26.316 56.3048 22.7132 56.6606 19.101C56.6779 18.5037 56.8537 17.8034 56.4512 17.2538C56.0409 17.3853 55.892 17.5723 55.8461 17.9177C55.7543 18.6085 55.5881 19.3927 55.4963 20.0835C55.2401 22.3237 55.0678 24.5544 54.8211 26.8786C54.6393 29.0254 54.467 31.2561 54.2107 33.4963C53.281 35.0475 52.2769 36.6921 51.2078 38.5143C50.9083 38.123 50.6374 37.9836 50.5153 37.6573C49.4437 34.2069 48.4656 30.831 48.2242 27.2014ZM40.0111 26.772C41.3373 27.2169 42.5145 27.8488 43.7108 28.6487C45.1875 29.6719 46.4409 30.9755 47.6943 32.2791C47.9765 33.2677 48.3522 34.3307 48.6534 35.4872C48.9356 36.4757 49.5441 37.3422 49.5839 38.4433C48.9503 38.8553 48.3149 38.5021 47.7081 38.4008C47.1108 38.3835 46.5975 38.3567 45.9907 38.2554C43.1403 36.3674 40.4196 34.1246 37.7181 32.0496C37.4012 32.2557 37.3268 32.3491 37.1684 32.4521C37.8323 33.0572 38.4962 33.6623 39.0762 34.2769C39.8336 34.9564 40.4975 35.5615 41.2549 36.241C41.9189 36.8461 42.7222 37.1802 43.2181 37.8044C43.1532 37.9818 43.0883 38.1593 43.0883 38.1593C40.9987 38.4813 38.8995 38.7193 36.8939 39.0317C34.0547 37.993 31.2154 36.9542 28.4602 35.9059C28.2273 36.1024 28.0689 36.2054 27.8361 36.4019C28.9484 37.2112 30.0875 37.5073 31.1618 37.9808C32.236 38.4543 33.4591 38.7409 34.4684 39.3918C34.4035 39.5693 34.3386 39.7467 34.2546 39.7562C32.5485 40.46 30.7488 41.0892 28.9587 41.8025C27.5867 41.7029 26.335 41.1645 25.0184 40.8035C24.0472 40.4884 22.992 40.1829 22.0208 39.8678C21.7593 39.8124 21.4235 39.8504 20.9197 39.9076C21.1257 40.2244 21.1543 40.4763 21.3317 40.5412C22.7609 41.1446 24.1805 41.6639 25.6001 42.1833C25.871 42.3227 26.142 42.4621 26.4129 42.6014C26.348 42.7789 26.2926 43.0403 26.2086 43.0498C25.1742 43.6774 24.0463 44.2305 23.0023 44.7741C20.808 44.1725 18.6041 43.4869 16.2626 43.8374C16.1977 44.0149 16.0488 44.2019 15.9094 44.4728C17.497 44.9731 19.2507 44.6892 20.7084 45.5445C20.6435 45.7219 20.5881 45.9834 20.4297 46.0864C18.4353 47.248 16.2903 47.8314 14.0613 48.4243C13.483 48.5749 12.7923 48.4832 12.2426 48.8857C12.4581 49.2865 12.7845 49.1644 13.0364 49.1359C15.3034 48.8788 17.4484 48.2954 19.5649 47.4601C20.0497 47.235 20.5249 46.926 21.2347 47.1857C20.7897 48.5118 19.7285 49.6527 19.5545 51.1182C19.7319 51.1832 19.9094 51.2481 20.0868 51.313C21.0087 50.4431 21.2857 49.136 22.2821 48.1725C22.5547 49.0771 22.0432 49.8155 22.2128 50.5617C22.7625 50.1592 22.7434 49.9912 23.0949 48.5906C23.2611 47.8064 23.0819 46.9763 22.9867 46.1366C24.4488 44.7802 26.2579 44.2349 28.1035 43.2602C27.7901 44.9966 27.3071 45.9869 26.0225 47.4082C25.536 46.8681 26.0476 46.1297 25.4771 45.5991C25.2252 45.6276 24.8755 47.7934 24.7067 51.5546C25.6822 49.658 27.1426 47.5364 28.074 46.7504C28.6461 48.0462 27.9398 49.317 27.9986 50.586C28.2505 50.5574 28.4089 50.4544 28.4739 50.2769C28.8253 48.8764 29.0928 47.4853 29.0054 45.9644C28.9673 45.6286 28.9292 45.2927 28.9102 45.1248C29.2443 44.3215 29.5135 43.6956 29.7637 42.9019C31.4413 41.9462 33.3535 41.5593 35.3591 41.2469C35.3782 41.4148 35.4717 41.4892 35.3972 41.5827C35.2674 41.9376 35.147 42.3765 34.9237 42.6569C33.91 44.2176 33.1673 45.9177 31.9667 47.3295C31.4992 46.9573 31.797 46.5834 31.8429 46.238C31.8793 45.8086 31.9252 45.4633 31.8775 45.0434C31.9139 44.6141 31.8758 44.2782 31.5763 43.887C31.4179 43.99 31.25 44.009 31.1755 44.1025C31.0266 44.2895 30.9712 44.5509 30.9998 44.8028C30.9955 47.0144 30.6362 49.0963 30.193 51.1876C30.5669 51.4854 30.7063 51.2144 30.7712 51.037C31.0404 50.4111 31.2257 49.7948 31.4109 49.1785C31.7927 48.795 32.2679 48.486 32.6496 48.1026C32.9569 47.8126 33.0582 47.2058 33.646 47.1391C34.1134 47.5113 33.7507 48.0627 33.7983 48.4826C33.8459 48.9024 33.8191 49.4157 33.7827 49.8451C33.8572 49.7516 34.0251 49.7325 34.1835 49.6295C34.2926 48.3415 34.4761 46.9599 34.6406 45.4105C35.4959 43.9528 36.4256 42.4016 37.4297 40.7569C39.2484 40.2956 40.9182 40.0212 42.71 40.0731C42.8701 40.7354 42.7957 40.8288 41.8548 41.5309C41.8089 41.8762 41.7535 42.1376 41.6331 42.5765C41.112 43.2309 40.7969 44.2021 39.9114 44.6427C39.3314 44.0281 39.5721 43.1504 38.9445 42.116C39.0415 43.7208 39.1652 44.8124 39.205 45.9135C39.0007 46.3619 38.8804 46.8007 38.6856 47.3331C38.7982 47.5755 38.9947 47.8083 39.2007 48.1251C39.5478 48.9362 38.9903 50.02 39.5988 50.8865C40.2862 49.4478 39.8629 47.965 40.0369 46.4995C40.6229 45.6676 41.1155 44.7613 41.898 44.1623C42.0755 44.2273 42.2434 44.2082 42.2529 44.2922C42.8251 45.588 42.6606 47.1375 43.0934 48.7043C43.5478 47.4621 43.5288 47.2942 43.3289 45.5309C43.2241 44.6073 43.1099 43.5997 42.9956 42.5921C43.4042 41.6953 43.9807 40.7795 44.6603 40.0221C47.2632 39.727 48.6447 39.9105 50.1864 40.7562C48.9563 45.6582 45.9594 49.2297 41.4383 51.3583C38.9306 52.4931 36.3198 53.4694 33.7931 54.4363C32.3293 55.0275 30.8084 55.1149 29.2399 54.7825C28.5396 54.6068 27.8393 54.4311 27.1295 54.1714C24.1128 53.0677 21.0044 52.6547 17.85 52.5872C16.7395 52.543 15.6289 52.4988 14.4248 52.3802C10.8965 52.0149 8.08412 50.4628 6.36936 47.3405C6.31223 46.8367 6.71302 46.6212 7.02984 46.4151C7.18825 46.3121 7.26269 46.2187 7.43062 46.1996C9.62153 45.2708 11.0455 43.5786 12.273 41.6534C13.2122 40.1862 14.2354 38.7095 15.2586 37.2327C16.2073 35.8495 17.427 34.6056 18.6562 33.4457C19.9693 32.2762 21.5171 31.6755 23.3184 31.8114C23.9157 31.8287 24.429 31.8556 25.0263 31.8729C26.9211 32.0833 28.7398 31.6219 30.3334 30.6758C31.2934 30.1417 32.2344 29.4397 33.0913 28.7472C33.7994 28.2417 34.498 27.6522 35.1966 27.0628C36.9962 26.4335 38.4236 26.2716 40.0111 26.772Z" fill="#313131"/>
<path d="M57.114 38.0998C57.8108 36.7451 58.2558 35.4189 58.7007 34.0928C58.7752 33.9993 58.6722 33.8409 58.6531 33.673C57.7788 34.9628 57.1659 36.3079 56.8145 37.7085C56.824 37.7925 57.011 37.9414 57.114 38.0998Z" fill="#313131"/>
<path d="M77.2035 24.7659L77.2874 24.7563C77.2874 24.7563 77.2779 24.6724 77.3619 24.6628C77.2779 24.6724 77.1939 24.6819 77.2035 24.7659Z" fill="#313131"/>
<path d="M75.5086 26.3188C76.3292 26.0557 76.8694 25.5692 77.2035 24.7659C76.3829 25.0291 75.7588 25.5251 75.5086 26.3188Z" fill="#313131"/>
<path d="M78.2457 23.4571C78.0129 23.6536 77.78 23.8501 77.6311 24.0371C78.3124 24.0449 78.3029 23.9609 78.2457 23.4571Z" fill="#313131"/>
<path d="M74.1495 27.8336C74.6992 27.4311 74.6992 27.4311 74.9875 26.9732C74.1669 27.2364 74.1668 27.2363 74.1495 27.8336Z" fill="#313131"/>
<path d="M60.9383 37.3259C60.9383 37.3259 60.8638 37.4194 60.8734 37.5033C60.9478 37.4098 60.9478 37.4098 61.0223 37.3163L60.9383 37.3259Z" fill="#313131"/>
<path d="M75.4341 26.4118C75.4341 26.4118 75.5173 26.4023 75.4341 26.4118C75.5173 26.4023 75.4341 26.4118 75.4341 26.4118C75.4341 26.4118 75.5173 26.4023 75.4341 26.4118C75.5173 26.4023 75.5079 26.3191 75.4341 26.4118C75.5079 26.3191 75.5079 26.3191 75.4341 26.4118Z" fill="#313131"/>
<path d="M75.0619 26.8797C75.3138 26.8511 75.5562 26.7386 75.4341 26.4123C75.1822 26.4408 74.9399 26.5533 75.0619 26.8797Z" fill="#313131"/>
<path d="M75.0708 26.9632C74.9781 26.8894 74.9876 26.9726 75.0708 26.9632C74.9876 26.9726 75.0708 26.9632 75.0708 26.9632C75.0614 26.88 75.0614 26.88 75.0708 26.9632C75.0614 26.88 75.0614 26.88 75.0708 26.9632C74.9781 26.8894 75.0614 26.88 75.0708 26.9632Z" fill="#313131"/>
<path d="M64.864 27.6959C64.6026 27.6405 64.4537 27.8275 64.3983 28.0889C64.6502 28.0603 64.8086 27.9573 64.864 27.6959Z" fill="#313131"/>
<path d="M64.948 27.6864L64.9289 27.5184L64.864 27.6959L64.948 27.6864Z" fill="#313131"/>
<path d="M77.5567 24.1306C77.4917 24.308 77.3428 24.495 77.2779 24.6724C77.5203 24.5599 77.6692 24.3729 77.5567 24.1306Z" fill="#313131"/>
<path d="M77.5567 24.1305C77.6311 24.0371 77.6311 24.037 77.6311 24.037C77.5471 24.0466 77.5471 24.0466 77.4632 24.0561C77.5471 24.0466 77.5567 24.1305 77.5567 24.1305Z" fill="#313131"/>
<path d="M76.2488 23.8536L76.1656 23.863C76.1656 23.863 76.175 23.9463 76.2488 23.8536Z" fill="#313131"/>
<path d="M76.3145 23.6761C76.3241 23.7601 76.2401 23.7696 76.2496 23.8536C76.2496 23.8536 76.3336 23.8441 76.3241 23.7601L76.3145 23.6761Z" fill="#313131"/>
<path d="M37.343 51.9927C38.0762 50.2086 38.0857 50.2926 38.0503 46.9798C38.02 45.9627 38.0736 44.9361 37.6235 43.9666C37.3716 43.9952 37.2037 44.0142 37.0358 44.0333C37.0946 45.3023 37.1535 46.5713 37.3802 47.8212C37.5326 49.1647 37.0037 50.5003 37.343 51.9927Z" fill="#313131"/>
<path d="M33.8164 52.3926C34.2441 51.6638 34.4103 50.8795 34.0632 50.0684C33.8874 50.7687 33.7861 51.3755 33.6104 52.0758C33.6199 52.1598 33.8069 52.3087 33.8164 52.3926Z" fill="#313131"/>
<path d="M34.1371 49.975C34.0539 49.9844 34.0633 50.0676 34.1371 49.975C34.0633 50.0676 34.0633 50.0676 34.1371 49.975Z" fill="#313131"/>
<path d="M28.26 50.6414C28.2695 50.7246 28.2695 50.7246 28.26 50.6414C28.3527 50.7151 28.3527 50.7151 28.26 50.6414C28.3433 50.6319 28.3433 50.6319 28.26 50.6414Z" fill="#313131"/>
</svg>
